<svg xmlns="http://www.w3.org/2000/svg" version="1.1" xmlns:xlink="http://www.w3.org/1999/xlink" xmlns:svgjs="http://svgjs.dev/svgjs" width="128" height="128" viewBox="0 0 128 128"><g transform="matrix(0.8046875,0,0,0.8046875,12.239829555828862,19.61238859858026)"><svg viewBox="0 0 96 82" data-background-color="#ffffff" preserveAspectRatio="xMidYMid meet" height="109" width="128" xmlns="http://www.w3.org/2000/svg" xmlns:xlink="http://www.w3.org/1999/xlink"><g id="tight-bounds" transform="matrix(1,0,0,1,0.25950000000000273,0.5152663201340033)"><svg viewBox="0 0 95.481 81.33566666666667" height="81.33566666666667" width="95.481"><g><svg viewBox="0 0 95.481 81.33566666666667" height="81.33566666666667" width="95.481"><g><svg viewBox="0 0 95.481 81.33566666666667" height="81.33566666666667" width="95.481"><g id="textblocktransform"><svg viewBox="0 0 95.481 81.33566666666667" height="81.33566666666667" width="95.481" id="textblock"><g><svg viewBox="0 0 95.481 81.33566666666667" height="81.33566666666667" width="95.481"><g><svg viewBox="0 0 95.481 81.33566666666667" height="81.33566666666667" width="95.481"><g><svg xmlns:x="http://ns.adobe.com/Extensibility/1.0/" xmlns:i="http://ns.adobe.com/AdobeIllustrator/10.0/" xmlns:graph="http://ns.adobe.com/Graphs/1.0/" xmlns="http://www.w3.org/2000/svg" xmlns:xlink="http://www.w3.org/1999/xlink" version="1.1" x="0" y="0" viewBox="5 9 54 46" enable-background="new 0 0 64 64" xml:space="preserve" height="81.33566666666667" width="95.481" class="icon-icon-0" data-fill-palette-color="accent" id="icon-0"><g fill="#c1c7d7" data-fill-palette-color="accent"><path d="M58 9H6A1 1 0 0 0 5 10V46A1 1 0 0 0 6 47H31V53H22A1 1 0 1 0 22 55H42A1 1 0 1 0 42 53H33V47H58A1 1 0 0 0 59 46V10A1 1 0 0 0 58 9M29.707 29.293A0.999 0.999 0 1 1 28.293 30.707L26.293 28.707A1 1 0 0 1 26.293 27.293L28.293 25.293A0.999 0.999 0 1 1 29.707 26.707L28.414 28zM33.97 24.243L31.97 32.243A1 1 0 0 1 30.029 31.757L32.029 23.757A1.001 1.001 0 0 1 33.97 24.243M37.707 28.707L35.707 30.707A0.997 0.997 0 0 1 34.293 30.707 1 1 0 0 1 34.293 29.293L35.586 28 34.293 26.707A0.999 0.999 0 1 1 35.707 25.293L37.707 27.293A1 1 0 0 1 37.707 28.707" fill="#c1c7d7" data-fill-palette-color="accent"></path></g></svg><g></g></g></svg></g></svg></g></svg></g></svg></g></svg></g><defs></defs></svg><rect width="95.481" height="81.33566666666667" fill="none" stroke="none" visibility="hidden"></rect></g></svg></g></svg>